<?xml version="1.0" encoding="utf-8"?>
<!-- Generator: Adobe Illustrator 22.0.0, SVG Export Plug-In . SVG Version: 6.00 Build 0)  -->
<svg version="1.1" id="Layer_1" xmlns="http://www.w3.org/2000/svg" xmlns:xlink="http://www.w3.org/1999/xlink" x="0px" y="0px"
	 viewBox="0 0 229 68.7" style="enable-background:new 0 0 229 68.7;" xml:space="preserve">
<style type="text/css">
	.st0{fill-rule:evenodd;clip-rule:evenodd;fill:#01AADD;}
</style>
<g>
	<path class="st0" d="M142.2,53.6c-13.3,9.8-32.6,15-49.2,15C69.8,68.6,48.8,60,33,45.7c-1.2-1.1-0.1-2.7,1.4-1.8
		c17.1,10,38.2,15.9,60.1,15.9c14.7,0,30.9-3.1,45.8-9.4C142.5,49.5,144.4,52,142.2,53.6z"/>
	<path class="st0" d="M147.7,47.3c-1.7-2.2-11.2-1-15.5-0.5c-1.3,0.2-1.5-1-0.3-1.8c7.6-5.3,20.1-3.8,21.5-2
		c1.5,1.8-0.4,14.3-7.5,20.3c-1.1,0.9-2.1,0.4-1.7-0.8C145.8,58.4,149.4,49.5,147.7,47.3z"/>
</g>
<path class="st0" d="M132.5,7.2V2c0-0.8,0.6-1.3,1.3-1.3l23.3,0c0.7,0,1.3,0.5,1.3,1.3l0,4.5c0,0.7-0.6,1.7-1.8,3.3l-12.1,17.2
	c4.5-0.1,9.2,0.6,13.3,2.9c0.9,0.5,1.2,1.3,1.2,2v5.5c0,0.8-0.8,1.6-1.7,1.2c-7.2-3.8-16.7-4.2-24.6,0c-0.8,0.4-1.7-0.4-1.7-1.2
	v-5.3c0-0.8,0-2.3,0.9-3.6l14-20l-12.2,0C133.1,8.5,132.5,8,132.5,7.2z"/>
<path class="st0" d="M47.6,39.6h-7.1c-0.7,0-1.2-0.6-1.3-1.2l0-36.3c0-0.7,0.6-1.3,1.4-1.3l6.6,0c0.7,0,1.2,0.6,1.3,1.2v4.7h0.1
	C50.4,2.2,53.6,0,58,0c4.4,0,7.2,2.1,9.2,6.7C68.9,2.2,72.8,0,76.9,0c3,0,6.2,1.2,8.2,4c2.2,3.1,1.8,7.5,1.8,11.4l0,22.9
	c0,0.7-0.6,1.3-1.4,1.3h-7.1c-0.7,0-1.3-0.6-1.3-1.3l0-19.3c0-1.5,0.1-5.4-0.2-6.8c-0.5-2.4-2.1-3.1-4.2-3.1c-1.7,0-3.5,1.1-4.2,3
	c-0.7,1.8-0.7,4.9-0.7,7v19.3c0,0.7-0.6,1.3-1.4,1.3h-7.1c-0.7,0-1.3-0.6-1.3-1.3l0-19.3c0-4.1,0.7-10-4.4-10c-5.1,0-4.9,5.8-4.9,10
	l0,19.3C49,39.1,48.4,39.6,47.6,39.6z"/>
<path class="st0" d="M178.5,0c10.5,0,16.2,9,16.2,20.5c0,11.1-6.3,19.9-16.2,19.9c-10.3,0-15.9-9-15.9-20.3
	C162.6,8.8,168.2,0,178.5,0z M178.6,7.4c-5.2,0-5.6,7.1-5.6,11.5c0,4.4-0.1,13.9,5.5,13.9c5.5,0,5.8-7.6,5.8-12.3
	c0-3.1-0.1-6.7-1.1-9.6C182.4,8.4,180.8,7.4,178.6,7.4z"/>
<path class="st0" d="M208.3,39.6h-7.1c-0.7,0-1.3-0.6-1.3-1.3L200,2c0.1-0.7,0.6-1.2,1.4-1.2l6.6,0c0.6,0,1.1,0.5,1.3,1v5.6h0.1
	c2-5,4.8-7.3,9.6-7.3c3.2,0,6.3,1.1,8.3,4.3c1.9,2.9,1.9,7.8,1.9,11.3v22.9c-0.1,0.6-0.7,1.1-1.4,1.1h-7.1c-0.7,0-1.2-0.5-1.3-1.1
	V18.8c0-4,0.5-9.8-4.4-9.8c-1.7,0-3.3,1.1-4.1,2.9c-1,2.2-1.1,4.4-1.1,6.9v19.6C209.7,39.1,209.1,39.6,208.3,39.6z"/>
<path class="st0" d="M114,22.3c0,2.8,0.1,5.1-1.3,7.5c-1.1,2-2.9,3.2-4.9,3.2c-2.7,0-4.3-2.1-4.3-5.1c0-6,5.4-7.1,10.5-7.1V22.3z
	 M121.1,39.5c-0.5,0.4-1.1,0.4-1.7,0.2c-2.4-2-2.8-2.9-4.1-4.7c-3.9,4-6.6,5.1-11.7,5.1c-6,0-10.6-3.7-10.6-11
	c0-5.8,3.1-9.7,7.6-11.6c3.8-1.7,9.2-2,13.3-2.5v-0.9c0-1.7,0.1-3.7-0.9-5.1c-0.9-1.3-2.5-1.8-4-1.8c-2.7,0-5.1,1.4-5.7,4.3
	c-0.1,0.6-0.6,1.3-1.2,1.3L95.3,12c-0.6-0.1-1.2-0.6-1.1-1.5c1.6-8.3,9.1-10.8,15.8-10.8c3.4,0,8,0.9,10.7,3.5
	c3.4,3.2,3.1,7.5,3.1,12.2v11c0,3.3,1.4,4.8,2.7,6.6c0.5,0.6,0.6,1.4,0,1.9C125.1,36.1,122.5,38.3,121.1,39.5L121.1,39.5z"/>
<path class="st0" d="M21.1,22.3c0,2.8,0.1,5.1-1.3,7.5c-1.1,2-2.9,3.2-4.9,3.2c-2.7,0-4.3-2.1-4.3-5.1c0-6,5.4-7.1,10.5-7.1V22.3z
	 M28.3,39.5c-0.5,0.4-1.1,0.4-1.7,0.2c-2.4-2-2.8-2.9-4.1-4.7c-3.9,4-6.6,5.1-11.7,5.1c-6,0-10.6-3.7-10.6-11
	c0-5.8,3.1-9.7,7.6-11.6c3.8-1.7,9.2-2,13.3-2.5v-0.9c0-1.7,0.1-3.7-0.9-5.1c-0.9-1.3-2.5-1.8-4-1.8c-2.7,0-5.1,1.4-5.7,4.3
	c-0.1,0.6-0.6,1.3-1.2,1.3L2.5,12c-0.6-0.1-1.2-0.6-1.1-1.5C3,2.2,10.5-0.3,17.3-0.3c3.4,0,7.9,0.9,10.7,3.5
	c3.4,3.2,3.1,7.5,3.1,12.2v11c0,3.3,1.4,4.8,2.7,6.6c0.5,0.6,0.6,1.4,0,1.9C32.3,36.1,29.7,38.3,28.3,39.5L28.3,39.5z"/>
</svg>
