<?xml version="1.0" encoding="utf-8"?>
<!-- Generator: Adobe Illustrator 22.0.0, SVG Export Plug-In . SVG Version: 6.00 Build 0)  -->
<svg version="1.1" xmlns="http://www.w3.org/2000/svg" xmlns:xlink="http://www.w3.org/1999/xlink" x="0px" y="0px"
	 viewBox="0 0 180.1 74.1" style="enable-background:new 0 0 180.1 74.1;" xml:space="preserve">
<style type="text/css">
	.st0{display:none;}
	.st1{fill-rule:evenodd;clip-rule:evenodd;fill:url(#SVGID_1_);}
	.st2{fill-rule:evenodd;clip-rule:evenodd;fill:url(#SVGID_2_);}
	.st3{fill-rule:evenodd;clip-rule:evenodd;fill:url(#SVGID_3_);}
	.st4{fill-rule:evenodd;clip-rule:evenodd;fill:url(#SVGID_4_);}
</style>
<g id="Grid">
</g>
<g id="Layer_1" class="st0">
</g>
<g id="Desktop" class="st0">
</g>
<g id="Guides" class="st0">
</g>
<g id="Page_1">
	<g id="Layer_1_1_">
		
			<linearGradient id="SVGID_1_" gradientUnits="userSpaceOnUse" x1="-206.8759" y1="432.9809" x2="-206.8759" y2="528.5878" gradientTransform="matrix(0.773 0 0 0.773 277.5606 -334.6534)">
			<stop  offset="0.35" style="stop-color:#A6CF36"/>
			<stop  offset="0.65" style="stop-color:#64AB35"/>
		</linearGradient>
		<rect x="110.7" y="0" class="st1" width="14" height="73.9"/>
		
			<linearGradient id="SVGID_2_" gradientUnits="userSpaceOnUse" x1="-187.1919" y1="432.9809" x2="-187.1919" y2="528.5878" gradientTransform="matrix(0.773 0 0 0.773 166.9795 -334.6534)">
			<stop  offset="0.35" style="stop-color:#A6CF36"/>
			<stop  offset="0.65" style="stop-color:#64AB35"/>
		</linearGradient>
		<path class="st2" d="M0.1,0h14v24.5c1.1-0.6,2.6-1,4.5-1h10.7c8.4,0,15.2,6.8,15.2,15.2v35.2h-14V44c0-2.5-2.1-4.6-4.6-4.6h-7.2
			c-2.5,0-4.6,2.1-4.6,4.6v29.9h-3.7H0.1V0L0.1,0z"/>
		
			<linearGradient id="SVGID_3_" gradientUnits="userSpaceOnUse" x1="-226.296" y1="463.3213" x2="-226.296" y2="528.5238" gradientTransform="matrix(0.773 0 0 0.773 252.1568 -334.6039)">
			<stop  offset="0.35" style="stop-color:#A6CF36"/>
			<stop  offset="0.65" style="stop-color:#64AB35"/>
		</linearGradient>
		<path class="st3" d="M99.2,23.5v35.2c0,8.4-6.8,15.2-15.2,15.2H70.4c-8.4,0-15.2-6.8-15.2-15.2V23.5h14V54c0,2.5,2.1,4.6,4.6,4.6
			h6.8c2.5,0,4.6-2.1,4.6-4.6V23.5H99.2L99.2,23.5z"/>
		
			<linearGradient id="SVGID_4_" gradientUnits="userSpaceOnUse" x1="-226.296" y1="463.3213" x2="-226.296" y2="528.5238" gradientTransform="matrix(0.773 0 0 0.773 332.987 -334.6039)">
			<stop  offset="0.35" style="stop-color:#A6CF36"/>
			<stop  offset="0.65" style="stop-color:#64AB35"/>
		</linearGradient>
		<path class="st4" d="M180.1,23.5v35.2c0,8.4-6.8,15.2-15.2,15.2h-13.6c-8.4,0-15.2-6.8-15.2-15.2V23.5h14V54
			c0,2.5,2.1,4.6,4.6,4.6h6.8c2.5,0,4.6-2.1,4.6-4.6V23.5H180.1L180.1,23.5z"/>
	</g>
</g>
</svg>
